<?xml version="1.0" encoding="iso-8859-1"?>
<!-- Generator: Adobe Illustrator 19.0.0, SVG Export Plug-In . SVG Version: 6.00 Build 0)  -->
<svg version="1.1" id="Capa_1" xmlns="http://www.w3.org/2000/svg" xmlns:xlink="http://www.w3.org/1999/xlink" x="0px" y="0px"
	 viewBox="0 0 512 512" style="enable-background:new 0 0 512 512;" xml:space="preserve">
<g>
	<g>
		<path d="M508.25,247.875L303.042,73.448C295.854,67.354,286.729,64,277.313,64h-2.917c-21.917,0-39.729,17.823-39.729,39.719
			c0,11.823,5.208,22.948,14.292,30.521l94.917,79.094H42.667C19.146,213.333,0,232.469,0,256s19.146,42.667,42.667,42.667h301.208
			l-94.917,79.094c-9.083,7.573-14.292,18.698-14.292,30.521c0,21.896,17.813,39.719,39.729,39.719h2.917
			c9.417,0,18.542-3.354,25.75-9.458L508.25,264.125c2.375-2.021,3.75-5,3.75-8.125S510.625,249.896,508.25,247.875z"/>
	</g>
</g>
<g>
</g>
<g>
</g>
<g>
</g>
<g>
</g>
<g>
</g>
<g>
</g>
<g>
</g>
<g>
</g>
<g>
</g>
<g>
</g>
<g>
</g>
<g>
</g>
<g>
</g>
<g>
</g>
<g>
</g>
</svg>
